<mxfile host="app.diagrams.net" agent="Mozilla/5.0 (Windows NT 10.0; Win64; x64) AppleWebKit/537.36 (KHTML, like Gecko) Chrome/135.0.0.0 Safari/537.36" version="26.2.14">
  <diagram name="Página-1" id="pVMtMYMZHzACWIz3ukff">
    <mxGraphModel dx="1426" dy="751" grid="1" gridSize="10" guides="1" tooltips="1" connect="1" arrows="1" fold="1" page="1" pageScale="1" pageWidth="827" pageHeight="1169" math="0" shadow="0">
      <root>
        <mxCell id="0" />
        <mxCell id="1" parent="0" />
        <mxCell id="tGtWYZfv930t1ReQaoXo-32" value="" style="edgeStyle=orthogonalEdgeStyle;rounded=0;orthogonalLoop=1;jettySize=auto;html=1;" edge="1" parent="1" source="tGtWYZfv930t1ReQaoXo-1" target="tGtWYZfv930t1ReQaoXo-3">
          <mxGeometry relative="1" as="geometry" />
        </mxCell>
        <mxCell id="tGtWYZfv930t1ReQaoXo-1" value="inico de programa&amp;nbsp;" style="ellipse;whiteSpace=wrap;html=1;" vertex="1" parent="1">
          <mxGeometry x="354" y="90" width="120" height="80" as="geometry" />
        </mxCell>
        <mxCell id="tGtWYZfv930t1ReQaoXo-8" style="edgeStyle=orthogonalEdgeStyle;rounded=0;orthogonalLoop=1;jettySize=auto;html=1;exitX=0.5;exitY=1;exitDx=0;exitDy=0;" edge="1" parent="1" source="tGtWYZfv930t1ReQaoXo-3" target="tGtWYZfv930t1ReQaoXo-4">
          <mxGeometry relative="1" as="geometry" />
        </mxCell>
        <mxCell id="tGtWYZfv930t1ReQaoXo-30" value="si" style="edgeLabel;html=1;align=center;verticalAlign=middle;resizable=0;points=[];" vertex="1" connectable="0" parent="tGtWYZfv930t1ReQaoXo-8">
          <mxGeometry x="-0.0625" y="-2" relative="1" as="geometry">
            <mxPoint as="offset" />
          </mxGeometry>
        </mxCell>
        <mxCell id="tGtWYZfv930t1ReQaoXo-9" style="edgeStyle=orthogonalEdgeStyle;rounded=0;orthogonalLoop=1;jettySize=auto;html=1;exitX=0.5;exitY=1;exitDx=0;exitDy=0;" edge="1" parent="1" source="tGtWYZfv930t1ReQaoXo-3" target="tGtWYZfv930t1ReQaoXo-5">
          <mxGeometry relative="1" as="geometry" />
        </mxCell>
        <mxCell id="tGtWYZfv930t1ReQaoXo-31" value="no" style="edgeLabel;html=1;align=center;verticalAlign=middle;resizable=0;points=[];" vertex="1" connectable="0" parent="tGtWYZfv930t1ReQaoXo-9">
          <mxGeometry x="0.1735" y="-1" relative="1" as="geometry">
            <mxPoint as="offset" />
          </mxGeometry>
        </mxCell>
        <mxCell id="tGtWYZfv930t1ReQaoXo-3" value="desea ingresar un numero&amp;nbsp;" style="rhombus;whiteSpace=wrap;html=1;" vertex="1" parent="1">
          <mxGeometry x="374" y="220" width="80" height="80" as="geometry" />
        </mxCell>
        <mxCell id="tGtWYZfv930t1ReQaoXo-33" style="edgeStyle=orthogonalEdgeStyle;rounded=0;orthogonalLoop=1;jettySize=auto;html=1;exitX=0.5;exitY=1;exitDx=0;exitDy=0;entryX=0;entryY=0.5;entryDx=0;entryDy=0;" edge="1" parent="1" source="tGtWYZfv930t1ReQaoXo-4" target="tGtWYZfv930t1ReQaoXo-3">
          <mxGeometry relative="1" as="geometry">
            <mxPoint x="200" y="240" as="targetPoint" />
            <Array as="points">
              <mxPoint x="294" y="420" />
              <mxPoint x="180" y="420" />
              <mxPoint x="180" y="260" />
            </Array>
          </mxGeometry>
        </mxCell>
        <mxCell id="tGtWYZfv930t1ReQaoXo-4" value="anote un numero y la base en la que se encuentra&amp;nbsp;" style="rounded=0;whiteSpace=wrap;html=1;" vertex="1" parent="1">
          <mxGeometry x="234" y="340" width="120" height="60" as="geometry" />
        </mxCell>
        <mxCell id="tGtWYZfv930t1ReQaoXo-11" style="edgeStyle=orthogonalEdgeStyle;rounded=0;orthogonalLoop=1;jettySize=auto;html=1;exitX=0.5;exitY=1;exitDx=0;exitDy=0;entryX=0.5;entryY=0;entryDx=0;entryDy=0;" edge="1" parent="1" source="tGtWYZfv930t1ReQaoXo-5" target="tGtWYZfv930t1ReQaoXo-10">
          <mxGeometry relative="1" as="geometry" />
        </mxCell>
        <mxCell id="tGtWYZfv930t1ReQaoXo-5" value="indique la operación&amp;nbsp;" style="rounded=0;whiteSpace=wrap;html=1;" vertex="1" parent="1">
          <mxGeometry x="510" y="340" width="120" height="60" as="geometry" />
        </mxCell>
        <mxCell id="tGtWYZfv930t1ReQaoXo-6" value="en base aun formato por ejemplo si ingreso 5 # seria en formato ABCDE independiente la operación&amp;nbsp;" style="shape=note;size=20;whiteSpace=wrap;html=1;" vertex="1" parent="1">
          <mxGeometry x="630" y="200" width="130" height="100" as="geometry" />
        </mxCell>
        <mxCell id="tGtWYZfv930t1ReQaoXo-7" style="edgeStyle=orthogonalEdgeStyle;rounded=0;orthogonalLoop=1;jettySize=auto;html=1;curved=1;" edge="1" parent="1" source="tGtWYZfv930t1ReQaoXo-5" target="tGtWYZfv930t1ReQaoXo-6">
          <mxGeometry relative="1" as="geometry" />
        </mxCell>
        <mxCell id="tGtWYZfv930t1ReQaoXo-12" style="edgeStyle=orthogonalEdgeStyle;rounded=0;orthogonalLoop=1;jettySize=auto;html=1;entryX=1;entryY=0.5;entryDx=0;entryDy=0;exitX=1;exitY=0.5;exitDx=0;exitDy=0;" edge="1" parent="1" source="tGtWYZfv930t1ReQaoXo-10" target="tGtWYZfv930t1ReQaoXo-5">
          <mxGeometry relative="1" as="geometry">
            <Array as="points">
              <mxPoint x="650" y="480" />
              <mxPoint x="650" y="370" />
            </Array>
          </mxGeometry>
        </mxCell>
        <mxCell id="tGtWYZfv930t1ReQaoXo-28" value="no" style="edgeLabel;html=1;align=center;verticalAlign=middle;resizable=0;points=[];" vertex="1" connectable="0" parent="tGtWYZfv930t1ReQaoXo-12">
          <mxGeometry x="-0.7765" y="-2" relative="1" as="geometry">
            <mxPoint as="offset" />
          </mxGeometry>
        </mxCell>
        <mxCell id="tGtWYZfv930t1ReQaoXo-13" style="edgeStyle=orthogonalEdgeStyle;rounded=0;orthogonalLoop=1;jettySize=auto;html=1;exitX=0;exitY=0.5;exitDx=0;exitDy=0;" edge="1" parent="1" source="tGtWYZfv930t1ReQaoXo-10" target="tGtWYZfv930t1ReQaoXo-14">
          <mxGeometry relative="1" as="geometry">
            <mxPoint x="480" y="540" as="targetPoint" />
          </mxGeometry>
        </mxCell>
        <mxCell id="tGtWYZfv930t1ReQaoXo-29" value="si" style="edgeLabel;html=1;align=center;verticalAlign=middle;resizable=0;points=[];" vertex="1" connectable="0" parent="tGtWYZfv930t1ReQaoXo-13">
          <mxGeometry x="-0.0213" y="1" relative="1" as="geometry">
            <mxPoint as="offset" />
          </mxGeometry>
        </mxCell>
        <mxCell id="tGtWYZfv930t1ReQaoXo-10" value="es valida la operación&amp;nbsp;" style="rhombus;whiteSpace=wrap;html=1;" vertex="1" parent="1">
          <mxGeometry x="530" y="440" width="80" height="80" as="geometry" />
        </mxCell>
        <mxCell id="tGtWYZfv930t1ReQaoXo-16" value="" style="edgeStyle=orthogonalEdgeStyle;rounded=0;orthogonalLoop=1;jettySize=auto;html=1;" edge="1" parent="1" source="tGtWYZfv930t1ReQaoXo-14" target="tGtWYZfv930t1ReQaoXo-15">
          <mxGeometry relative="1" as="geometry" />
        </mxCell>
        <mxCell id="tGtWYZfv930t1ReQaoXo-14" value="volver numero a base 10" style="rounded=0;whiteSpace=wrap;html=1;" vertex="1" parent="1">
          <mxGeometry x="374" y="525" width="120" height="60" as="geometry" />
        </mxCell>
        <mxCell id="tGtWYZfv930t1ReQaoXo-18" value="" style="edgeStyle=orthogonalEdgeStyle;rounded=0;orthogonalLoop=1;jettySize=auto;html=1;" edge="1" parent="1" source="tGtWYZfv930t1ReQaoXo-15" target="tGtWYZfv930t1ReQaoXo-17">
          <mxGeometry relative="1" as="geometry" />
        </mxCell>
        <mxCell id="tGtWYZfv930t1ReQaoXo-15" value="hacer la operación" style="whiteSpace=wrap;html=1;rounded=0;" vertex="1" parent="1">
          <mxGeometry x="374" y="665" width="120" height="60" as="geometry" />
        </mxCell>
        <mxCell id="tGtWYZfv930t1ReQaoXo-22" value="" style="edgeStyle=orthogonalEdgeStyle;rounded=0;orthogonalLoop=1;jettySize=auto;html=1;" edge="1" parent="1" source="tGtWYZfv930t1ReQaoXo-17" target="tGtWYZfv930t1ReQaoXo-21">
          <mxGeometry relative="1" as="geometry" />
        </mxCell>
        <mxCell id="tGtWYZfv930t1ReQaoXo-17" value="mostrar resultado en cada base&amp;nbsp;" style="whiteSpace=wrap;html=1;rounded=0;" vertex="1" parent="1">
          <mxGeometry x="374" y="805" width="120" height="60" as="geometry" />
        </mxCell>
        <mxCell id="tGtWYZfv930t1ReQaoXo-24" value="" style="edgeStyle=orthogonalEdgeStyle;rounded=0;orthogonalLoop=1;jettySize=auto;html=1;" edge="1" parent="1" source="tGtWYZfv930t1ReQaoXo-21" target="tGtWYZfv930t1ReQaoXo-23">
          <mxGeometry relative="1" as="geometry" />
        </mxCell>
        <mxCell id="tGtWYZfv930t1ReQaoXo-25" value="no" style="edgeLabel;html=1;align=center;verticalAlign=middle;resizable=0;points=[];" vertex="1" connectable="0" parent="tGtWYZfv930t1ReQaoXo-24">
          <mxGeometry x="-0.4222" relative="1" as="geometry">
            <mxPoint as="offset" />
          </mxGeometry>
        </mxCell>
        <mxCell id="tGtWYZfv930t1ReQaoXo-26" style="edgeStyle=orthogonalEdgeStyle;rounded=0;orthogonalLoop=1;jettySize=auto;html=1;exitX=1;exitY=0.5;exitDx=0;exitDy=0;entryX=1;entryY=0.5;entryDx=0;entryDy=0;" edge="1" parent="1" source="tGtWYZfv930t1ReQaoXo-21" target="tGtWYZfv930t1ReQaoXo-5">
          <mxGeometry relative="1" as="geometry" />
        </mxCell>
        <mxCell id="tGtWYZfv930t1ReQaoXo-27" value="si" style="edgeLabel;html=1;align=center;verticalAlign=middle;resizable=0;points=[];" vertex="1" connectable="0" parent="tGtWYZfv930t1ReQaoXo-26">
          <mxGeometry x="-0.8659" relative="1" as="geometry">
            <mxPoint y="1" as="offset" />
          </mxGeometry>
        </mxCell>
        <mxCell id="tGtWYZfv930t1ReQaoXo-21" value="desea cambiar la operación&amp;nbsp;" style="rhombus;whiteSpace=wrap;html=1;rounded=0;" vertex="1" parent="1">
          <mxGeometry x="391" y="920" width="86" height="95" as="geometry" />
        </mxCell>
        <mxCell id="tGtWYZfv930t1ReQaoXo-23" value="fin del programa&amp;nbsp;" style="ellipse;whiteSpace=wrap;html=1;rounded=0;" vertex="1" parent="1">
          <mxGeometry x="394" y="1050" width="80" height="80" as="geometry" />
        </mxCell>
      </root>
    </mxGraphModel>
  </diagram>
</mxfile>
